<svg xmlns="http://www.w3.org/2000/svg" viewBox="0 0 512 512">
  <rect width="512" height="512" rx="96" fill="#d8232a"/>
  <circle cx="256" cy="256" r="184" fill="#260507" opacity="0.92"/>
  <path d="M146 300c16 68 62 105 110 105s94-37 110-105H146Z" fill="#f6c95a"/>
  <path d="M168 263h176c19 0 34 15 34 34v3H134v-3c0-19 15-34 34-34Z" fill="#fffaf1"/>
  <path d="M199 237c-20-28-4-50 15-71 12-14 18-30 7-52 40 22 55 57 35 89-9 15-24 22-57 34Zm79 0c5-24 17-38 34-53 16-14 22-30 16-50 36 25 45 65 19 90-14 14-35 16-69 13Z" fill="#f6c95a"/>
</svg>
